<svg id="Layer_1" data-name="Layer 1" xmlns="http://www.w3.org/2000/svg" viewBox="0 0 195.25 76.65"><defs><style>.cls-1{fill:#ff0032;}</style></defs><title>Artboard 1</title><path id="_Path_" data-name="&lt;Path&gt;" class="cls-1" d="M1.92,20.33C4,19.36,10.2,17,17,14.83a292.15,292.15,0,0,1-6.74,34.51,2.25,2.25,0,0,0,1.62,1.82,2.52,2.52,0,0,0,2.39-.25s2.7-11.16,4-17.07c2.68-12,4.1-18,4.48-20.83,7.93-2.39,15.3-4.1,16.51-2.85a3.72,3.72,0,0,0,.28-4.61C37.14,2.3,3.09,15.19.2,17.26a2.21,2.21,0,0,0,0,1.93A2.49,2.49,0,0,0,1.92,20.33Z"/><path id="_Compound_Path_" data-name="&lt;Compound Path&gt;" class="cls-1" d="M30,33.85s4.28-14.18,4.28-17.77c0-1.09,0-2.3-1.65-2.3A12.43,12.43,0,0,0,28.6,15s.26.27.26,2c0,6.14-7.17,32.42-7.17,32.42a2.58,2.58,0,0,0,2.7,2c1.28,0,1.65-.48,1.65-.48.32-2.86,2.68-12.18,2.68-12.18s4.35-6.94,7.94-6.94c4.6,0-1.23,10.33-1.23,15.45,0,4.05,3.1,4.36,3.63,4.36,2.49,0,5.65-1.19,8.85-3a8.15,8.15,0,0,0,6,3c9,0,17.29-11.94,17.29-13.42,0,0,0-.67-.55-.67-.74,0-.75.31-1.14.76s-8.29,10-13.65,10a4.43,4.43,0,0,1-4.2-2.12c6.1-4.49,11.44-10.77,11.44-15.21,0-.19,0-3.25-4-3.25-5.17,0-12.8,7.24-12.8,15.72a10.5,10.5,0,0,0,.26,2.4,13.68,13.68,0,0,1-5.86,2,1.43,1.43,0,0,1-1.48-1.5c0-1.84,4-9.11,4-13.76,0,0,.56-5-3.8-5C34.15,27.45,30,33.85,30,33.85Zm27.75-3.16c.67,0,1.14.38,1.14,1.57,0,3.05-3.69,7.28-7.94,10.55C51.19,36.19,55,30.69,57.79,30.69Z"/><path id="_Compound_Path_2" data-name="&lt;Compound Path&gt;" class="cls-1" d="M161.63,52.72c4.59,0,8.82-2.55,12.1-5.49.17,3.64,2,6.17,6.17,6.17,4.34,0,7.44-5.66,7.44-5.66l-7.08,26.39a3.82,3.82,0,0,0,3.48,2.52c1.46,0,1.67-1.72,1.67-1.72C190,52.12,195.25,34.85,195.25,34s-.07-2.33-2.4-2.33a5.64,5.64,0,0,0-3.74,1.41,4.4,4.4,0,0,1,.83,2.91c0,4-6.08,13.31-9.39,13.31-.78,0-2.19-.27-2.19-3.08,0-4.44,4-11.22,4-15.39,0-1.14-.78-1.85-2.68-1.85a6,6,0,0,0-3.28,1,2,2,0,0,1,.55,1.51,30.73,30.73,0,0,1-1.74,8.67h0c-.76,2.49-5.9,9-11.52,9-3.08,0-4.3-1.62-4.8-3,6.9-4.57,12.39-10.7,12.39-15.15l-2.91,1,2.91-1c0-.19,0-3.42-4.2-3.42-5.43,0-13.44,7.6-13.44,16.5C153.63,51.59,159.88,52.72,161.63,52.72Zm4.07-21.88c.7,0,1.2.4,1.2,1.65,0,3-3.58,7-8.28,10.19C159.13,36.14,162.89,30.84,165.7,30.84Z"/><path id="_Path_2" data-name="&lt;Path&gt;" class="cls-1" d="M87.75,57.38c3.11,0,7.2-8.3,14.18-26.5S111.47,6,113.27,6a4.6,4.6,0,0,0-4.44-3.77c-5.09,0-16.54,49.44-20.91,49.44-1.29,0-1.82-8.61-1.82-13.23,0-25.41,7.43-38,7.43-38A4.94,4.94,0,0,0,91.33,0c-.67,0-2.78.29-3.23.74-4.18,4.18-7.31,22.55-7.31,28.86C80.79,44.79,83.05,57.38,87.75,57.38Z"/><path id="_Compound_Path_3" data-name="&lt;Compound Path&gt;" class="cls-1" d="M104.69,44.56c0,6.53,3.58,7.92,5.16,7.92,2.42,0,6.42-1.45,10.15-6,.07,2.65.73,4.63,2.55,4.63,3,0,5.87-2,8.32-4.61l-.95,3.93s.57,2,2.39,2a2.82,2.82,0,0,0,1.9-.49l4.74-18.13,0,0h0l5.2-19.89s1.14-3.46-1.52-3.46a9.27,9.27,0,0,0-4.49,1.13s.67,2-1.06,9.13L133.64,35c-2.53,8.64-7.52,12.8-9.12,12.8-1.83,0,0-7.25,0-7.25l2-8h0l1.23-4.9s-1.12-1.75-2.38-1.75-1.6.47-1.6.47l-.61,2.41a6.9,6.9,0,0,0-5-1.91C112.39,26.87,104.69,37,104.69,44.56Zm14.53-14.61a5.05,5.05,0,0,1,3.37,1.23l-.84,3.36c-.17.66-.36,1.48-.56,2.37h0c-2,8.28-6.69,10.7-8.63,10.7,0,0-2.36.15-2.36-4.25C110.19,37.29,115.74,29.95,119.22,29.95Z"/><path id="_Path_3" data-name="&lt;Path&gt;" class="cls-1" d="M141.42,50.53s.54,1.93,2.25,1.93a6.59,6.59,0,0,0,2.22-.46l9.37-35.87s1.08-3.26-1.43-3.26a11.84,11.84,0,0,0-4.66,1.06s.63,1.85-1,8.6S141.42,50.53,141.42,50.53Z"/></svg>