<svg xmlns="http://www.w3.org/2000/svg" xmlns:xlink="http://www.w3.org/1999/xlink" viewBox="0 0 852.31 392.02"><defs><style>.cls-1{fill:#191718;}.cls-2,.cls-6{fill:#fff;}.cls-2{stroke:#fff;}.cls-2,.cls-4{stroke-miterlimit:10;}.cls-3{fill:url(#linear-gradient);}.cls-4,.cls-5{fill:#e5213a;}.cls-4{stroke:#e5213a;stroke-width:5px;}.cls-7{fill:url(#linear-gradient-2);}.cls-8{fill:url(#linear-gradient-3);}.cls-9{fill:#fc0;}.cls-10{fill:url(#linear-gradient-4);}.cls-11{fill:url(#linear-gradient-5);}</style><linearGradient id="linear-gradient" x1="422.43" x2="422.43" y2="339.76" gradientUnits="userSpaceOnUse"><stop offset="0" stop-color="#fff3df"/><stop offset="0.83" stop-color="#ffeca9"/><stop offset="1" stop-color="#ffde94"/></linearGradient><linearGradient id="linear-gradient-2" x1="7.25" y1="222.42" x2="34.8" y2="222.42" xlink:href="#linear-gradient"/><linearGradient id="linear-gradient-3" x1="814.72" y1="316.56" x2="851.43" y2="316.56" xlink:href="#linear-gradient"/><linearGradient id="linear-gradient-4" x1="832.48" y1="281.48" x2="841.46" y2="281.48" xlink:href="#linear-gradient"/><linearGradient id="linear-gradient-5" x1="4.38" y1="317.52" x2="65.22" y2="317.52" xlink:href="#linear-gradient"/></defs><title>Asset 1</title><g id="Layer_2" data-name="Layer 2"><g id="Layer_13" data-name="Layer 13"><polygon points="455.45 325.66 824.65 325.66 739.54 196.85 100.97 196.85 50.17 300.09 52.34 324.29 455.45 325.66"/></g><g id="Layer_2-2" data-name="Layer 2"><circle class="cls-1" cx="175.48" cy="317.52" r="74.51"/><circle class="cls-1" cx="708.04" cy="317.52" r="74.51"/></g><g id="Layer_10" data-name="Layer 10"><circle class="cls-2" cx="708.04" cy="317.52" r="37.51"/><circle class="cls-2" cx="175.48" cy="317.52" r="37.51"/></g><g id="Layer_3" data-name="Layer 3"><path class="cls-3" d="M818.82,188.59c-2.21-3.25-9.29-12.58-22.67-24-41-34.91-97.25-26.11-130.94-28h-41a1.42,1.42,0,0,1-1.45-1.14,1.59,1.59,0,0,1,1.13-2.65h11.85a147.23,147.23,0,0,1-15-13.11c-13.22-13.19-24.22-28.25-35.44-43.13-2.53-2.13-5-4.3-7.45-6.58s-5-4.91-7.47-7.4-4.74-4.85-6-7.94c0-.06,0-.12,0-.18a11.94,11.94,0,0,1-1.55-3.91C503,11,442.62,2.86,442.62,2.86s-101-15-208.21,23.57a78.64,78.64,0,0,0-26,15.61l-102.2,92.13S60.26,169.35,31,214V214a2.47,2.47,0,0,1-.56,1.06,2.63,2.63,0,0,1-.39.35c-13,20.2-22.53,42.27-22.79,63.84,0,0,1.72,45.78,57,45.78H87.58s-1.08-91,91-91,84.33,91,84.33,91,1.73,14.69,20.73,14.69h317.9c19,0,20.73-14.69,20.73-14.69s-7.77-91,84.33-91,91,91.61,91,91.61h27C830.56,309.9,853.62,239.71,818.82,188.59Z"/></g><g id="Layer_6" data-name="Layer 6"><path class="cls-4" d="M797.46,177.79l-89.6.08c-43.87,0-65.85,27.7-84.1,52-13.57,18.1-24,30.9-42.58,30.92-14.31,0-22.68-6-32.59-15.59-12.15-11.78-26.1-24.66-53.75-24.63L27,221.12c-.75,1.16-1.51,2.31-2.25,3.48l470.09-.53c26.24,0,38.91,12.25,51.15,24.12,10,9.71,19.48,18.88,35.2,18.86,20.32,0,32.52-16.3,46.65-35.14,17.76-23.68,37.89-50.52,80-50.57l93.07-.08Z"/></g><g id="Layer_9" data-name="Layer 9"><path class="cls-5" d="M210.71,58.23a156.16,156.16,0,0,1,39.51-27.77l1.26-1q3.78-2.94,7.54-5.92c3.25-2.58,6.48-5.19,9.71-7.8q-9.62,2.55-19.4,5.64A187,187,0,0,0,228,31.8c-27.47,15.84-49.36,39.79-72.27,61.91a727.39,727.39,0,0,1-78.22,65.54c-4.84,4.66-10,9.86-15.26,15.49q47.4-.31,94.76-2.6l-8.16-15.35C160,127,187.8,80.58,210.71,58.23Z"/></g><g id="Layer_8" data-name="Layer 8"><path class="cls-1" d="M185.7,68.65c-1.61,4.33-1.93,9.83-5,12.83C158,103.31,135.1,124.9,111.52,145.85c-3.53,3.13-11,2.45-16.57,3.53l-2.09-4.49L181,67Z"/><path class="cls-6" d="M475.62,162.67c-27.65,0-55.29.06-82.93,0-18.66-.05-24.25-5.75-24.28-24.7q0-30.19.19-60.4c.14-17.6,3.66-22.71,21.23-22.7,44.3,0,88.62,1.18,132.91,2.67,5.78.19,13.3,3.57,16.8,8,16.4,20.81,32.59,41.91,47,64.1,8.93,13.71,1.35,27.82-14.86,31.8a56.88,56.88,0,0,1-13.16,1.34c-27.65.11-55.29.05-82.93.05ZM511,61c-8.85,0-17.61,0-26.36,0q-48.54.09-97.08.25c-6.1,0-12.06,1-12.16,9.08-.3,24.53-.69,49.06-.52,73.58.05,8.5,5.25,12.71,14,12.69,38.53-.12,77.05-.19,115.58,0,6.71,0,7.84-3.12,7.81-8.75-.16-25.91-.07-51.82-.14-77.74C512.13,67.77,511.58,65.46,511,61Zm9.1.34v94.92c16.1,0,31.44.66,46.71-.19,14.8-.84,21.91-12.14,14.23-23.88-13.91-21.24-29.21-41.62-44.73-61.74C533.09,66.22,526.41,64.7,520.1,61.3Z"/><path class="cls-6" d="M267.64,163c-17,0-34.09-.42-51.11.14-12.78.42-22.88-2.9-28.28-15.37-5.11-11.78-2.16-25.81,8.05-35.57,23.8-22.73,51.59-39.37,83-48.56,17.05-5,35.29-7.22,53.11-7.92,17-.66,21.54,5.52,21.64,22.22.11,18.4.21,36.8.18,55.2,0,19.62-8.46,28.91-28.32,29.59-19.4.66-38.84.14-58.27.14Zm.82-6.54v-.18c19.43,0,38.86.29,58.28-.09,15.2-.3,21-6.45,21.08-21.37.11-15.34,0-30.68,0-46,0-26.93-3.05-29.64-30.67-27.3-2,.17-4.07.37-6.09.67-41,6-76.27,24.35-107.3,51.18a40.44,40.44,0,0,0-10.31,14.85c-5,12.31,2.23,29.76,19.78,28.54C231.58,155.46,250.05,156.45,268.46,156.45Z"/><path class="cls-1" d="M511,61c.58,4.5,1.13,6.81,1.14,9.12.07,25.92,0,51.83.14,77.74,0,5.63-1.1,8.79-7.81,8.75-38.53-.2-77.05-.13-115.58,0-8.76,0-14-4.19-14-12.69-.17-24.52.22-49.05.52-73.58.1-8.05,6.06-9.05,12.16-9.08Q436.1,61,484.64,61C493.39,60.94,502.15,61,511,61Z"/><path class="cls-1" d="M520.1,61.3c6.31,3.4,13,4.92,16.21,9.11,15.52,20.12,30.82,40.5,44.73,61.74,7.68,11.74.57,23-14.23,23.88-15.27.85-30.61.19-46.71.19Z"/><path class="cls-1" d="M268.46,156.45c-18.41,0-36.88-1-55.2.28-17.55,1.22-24.83-16.23-19.78-28.54a40.44,40.44,0,0,1,10.31-14.85c31-26.83,66.28-45.13,107.3-51.18,2-.3,4.06-.5,6.09-.67,27.62-2.34,30.67.37,30.67,27.3,0,15.34.08,30.68,0,46-.11,14.92-5.88,21.07-21.08,21.37-19.42.38-38.85.09-58.28.09Z"/><path class="cls-1" d="M562.09,50.24,643.77,137c-9.47,7.37-18.31,8.2-25.84-.47-18.33-21.13-35.27-43.35-52.7-65.18-1.86-2.33-3.86-4.87-4.61-7.6-1.15-4.14-1.25-8.53-1.8-12.82Z"/><path class="cls-7" d="M34.8,214.9c-7.52,8.64-13,20-27.55,14.23C7.64,218.53,20,211.81,34.8,214.9Z"/><path class="cls-5" d="M18.25,236C15.06,250.5,12,265.06,8.5,279.45c-.52,2.09-3.45,3.33-5.26,5C2.1,282.35-.27,280,0,278.27c2.32-13.38,4.76-26.78,8.16-39.79.63-2.4,5.78-3.1,8.84-4.58Z"/><path class="cls-6" d="M814.72,325.66h36.71v-18.2H814.72Z"/><path class="cls-6" d="M830.7,267.38c2.7-5.11,4.94-7.86,5.63-11,2.37-10.57,5-21.18,6-31.92,1.58-16.68,1-16.74-15.58-15.68a3.26,3.26,0,0,0-1.61.65C826.94,228,828.67,246.12,830.7,267.38Z"/><path class="cls-6" d="M843.33,288.29l1.81,2.16c2.57-2.71,6.87-5.24,7.17-8.18.23-2.28-4.53-5.07-9-9.55Z"/><path class="cls-8" d="M814.72,325.66v-18.2h36.71v18.2Z"/><path class="cls-9" d="M830.7,267.38c-2-21.26-3.76-39.34-5.53-57.91a3.26,3.26,0,0,1,1.61-.65c16.63-1.06,17.16-1,15.58,15.68-1,10.74-3.66,21.35-6,31.92C835.64,259.52,833.4,262.27,830.7,267.38Z"/><path class="cls-10" d="M832.48,288.19V272.62c4.44,4.48,9.2,7.26,9,9.54-.3,2.94-4.6,5.48-7.17,8.19Z"/><path class="cls-11" d="M4.38,326.73V308.3H65.22v18.43Z"/></g></g></svg>